<svg width="28" height="28" viewBox="0 0 28 28" fill="none" xmlns="http://www.w3.org/2000/svg">
<path d="M14.5 27.625C17.4094 27.6248 20.2363 26.6584 22.5369 24.8775C24.8375 23.0966 26.4816 20.6021 27.2108 17.7856M14.5 27.625C11.5906 27.6248 8.76371 26.6584 6.46309 24.8775C4.16247 23.0966 2.51845 20.6021 1.78917 17.7856M14.5 27.625C18.124 27.625 21.0625 21.7479 21.0625 14.5C21.0625 7.25209 18.124 1.375 14.5 1.375M14.5 27.625C10.876 27.625 7.93751 21.7479 7.93751 14.5C7.93751 7.25209 10.876 1.375 14.5 1.375M27.2108 17.7856C27.4806 16.7356 27.625 15.6346 27.625 14.5C27.6286 12.2427 27.0473 10.0229 25.9377 8.05708M27.2108 17.7856C23.3217 19.9416 18.9467 21.0695 14.5 21.0625C9.88876 21.0625 5.55605 19.874 1.78917 17.7856M1.78917 17.7856C1.51318 16.7123 1.37402 15.6083 1.37501 14.5C1.37501 12.1594 1.98751 9.96021 3.0623 8.05708M14.5 1.375C16.8279 1.37403 19.1141 1.9924 21.124 3.16666C23.134 4.34092 24.7954 6.02879 25.9377 8.05708M14.5 1.375C12.1722 1.37403 9.88595 1.9924 7.87598 3.16666C5.866 4.34092 4.20462 6.02879 3.0623 8.05708M25.9377 8.05708C22.7624 10.8074 18.7008 12.3185 14.5 12.3125C10.1279 12.3125 6.12917 10.7083 3.0623 8.05708" stroke="white" stroke-width="1.5" stroke-linecap="round" stroke-linejoin="round"/>
</svg>
