<svg width="33" height="32" viewBox="0 0 33 32" fill="none" xmlns="http://www.w3.org/2000/svg">
<path d="M22.3134 18.666C22.4201 17.786 22.5001 16.906 22.5001 15.9993C22.5001 15.0927 22.4201 14.2127 22.3134 13.3327H26.8201C27.0334 14.186 27.1667 15.0793 27.1667 15.9993C27.1667 16.9193 27.0334 17.8127 26.8201 18.666M19.9534 26.0793C20.7534 24.5993 21.3667 22.9993 21.7934 21.3327H25.7267C24.435 23.557 22.3856 25.242 19.9534 26.0793ZM19.6201 18.666H13.3801C13.2467 17.786 13.1667 16.906 13.1667 15.9993C13.1667 15.0927 13.2467 14.1993 13.3801 13.3327H19.6201C19.7401 14.1993 19.8334 15.0927 19.8334 15.9993C19.8334 16.906 19.7401 17.786 19.6201 18.666ZM16.5001 26.6127C15.3934 25.0127 14.5001 23.2393 13.9534 21.3327H19.0467C18.5001 23.2393 17.6067 25.0127 16.5001 26.6127ZM11.1667 10.666H7.27341C8.55189 8.43563 10.5998 6.748 13.0334 5.91935C12.2334 7.39935 11.6334 8.99935 11.1667 10.666ZM7.27341 21.3327H11.1667C11.6334 22.9993 12.2334 24.5993 13.0334 26.0793C10.6049 25.2416 8.55988 23.5563 7.27341 21.3327ZM6.18008 18.666C5.96675 17.8127 5.83341 16.9193 5.83341 15.9993C5.83341 15.0793 5.96675 14.186 6.18008 13.3327H10.6867C10.5801 14.2127 10.5001 15.0927 10.5001 15.9993C10.5001 16.906 10.5801 17.786 10.6867 18.666M16.5001 5.37268C17.6067 6.97268 18.5001 8.75935 19.0467 10.666H13.9534C14.5001 8.75935 15.3934 6.97268 16.5001 5.37268ZM25.7267 10.666H21.7934C21.3761 9.01463 20.7582 7.42054 19.9534 5.91935C22.4067 6.75935 24.4467 8.45268 25.7267 10.666ZM16.5001 2.66602C9.12675 2.66602 3.16675 8.66602 3.16675 15.9993C3.16675 19.5356 4.57151 22.927 7.07199 25.4274C8.31011 26.6656 9.77996 27.6477 11.3976 28.3177C13.0153 28.9878 14.7491 29.3327 16.5001 29.3327C20.0363 29.3327 23.4277 27.9279 25.9282 25.4274C28.4287 22.927 29.8334 19.5356 29.8334 15.9993C29.8334 14.2484 29.4885 12.5146 28.8185 10.8969C28.1484 9.27923 27.1663 7.80937 25.9282 6.57126C24.6901 5.33314 23.2202 4.35102 21.6025 3.68096C19.9849 3.01089 18.251 2.66602 16.5001 2.66602Z" fill="#2e2e2e"/>
</svg>
