<svg width="130" height="28" viewBox="0 0 130 28" fill="none" xmlns="http://www.w3.org/2000/svg">
<path d="M18.5312 2C15.5107 2 13.0624 4.44824 13.0624 7.46875V11.8328L11.7288 13.1664C11.4237 13.4715 11.4237 13.966 11.7288 14.2711C11.8814 14.4236 12.0814 14.5 12.2812 14.5C12.481 14.5 12.681 14.4236 12.8335 14.2711L14.1671 12.9375H18.5312C21.5517 12.9375 24 10.4893 24 7.46875V2H18.5312ZM21.4273 5.67734L18.8539 8.25078H20.0937C20.5256 8.25078 20.875 8.6002 20.875 9.03203C20.875 9.46387 20.5256 9.81328 20.0937 9.81328H17.2914L16.7398 10.3648C16.5872 10.5174 16.3872 10.5938 16.1874 10.5938C15.9876 10.5938 15.7876 10.5174 15.6351 10.3648C15.33 10.0598 15.33 9.56523 15.6351 9.26016L16.1874 8.70781V5.90625C16.1874 5.47441 16.5369 5.125 16.9687 5.125C17.4005 5.125 17.75 5.47441 17.75 5.90625V7.14531L20.3226 4.57266C20.6277 4.26758 21.1222 4.26758 21.4273 4.57266C21.7324 4.87773 21.7326 5.37227 21.4273 5.67734Z" fill="#ECC94B"/>
<path d="M5.46879 2C8.48932 2 10.9376 4.44824 10.9376 7.46875V11.8328L12.2712 13.1664C12.5763 13.4715 12.5763 13.966 12.2712 14.2711C12.1186 14.4236 11.9186 14.5 11.7188 14.5C11.519 14.5 11.319 14.4236 11.1665 14.2711L9.83289 12.9375H5.46879C2.44826 12.9375 4.17986e-07 10.4893 4.17986e-07 7.46875V2H5.46879ZM2.57268 5.67734L5.14613 8.25078H3.90628C3.47444 8.25078 3.12502 8.6002 3.12502 9.03203C3.12502 9.46387 3.47444 9.81328 3.90628 9.81328H6.70865L7.26021 10.3648C7.41275 10.5174 7.61276 10.5938 7.81256 10.5938C8.01237 10.5938 8.21237 10.5174 8.36491 10.3648C8.66999 10.0598 8.66999 9.56523 8.36491 9.26016L7.81256 8.70781V5.90625C7.81256 5.47441 7.46314 5.125 7.03131 5.125C6.59947 5.125 6.25005 5.47441 6.25005 5.90625V7.14531L3.67737 4.57266C3.37229 4.26758 2.87776 4.26758 2.57268 4.57266C2.2676 4.87773 2.2674 5.37227 2.57268 5.67734Z" fill="#ECC94B"/>
<path d="M18.5312 26C15.5107 26 13.0624 23.5518 13.0624 20.5312V16.1672L11.7288 14.8336C11.4237 14.5285 11.4237 14.034 11.7288 13.7289C11.8814 13.5764 12.0814 13.5 12.2812 13.5C12.481 13.5 12.681 13.5764 12.8335 13.7289L14.1671 15.0625H18.5312C21.5517 15.0625 24 17.5107 24 20.5312V26H18.5312ZM21.4273 22.3227L18.8539 19.7492H20.0937C20.5256 19.7492 20.875 19.3998 20.875 18.968C20.875 18.5361 20.5256 18.1867 20.0937 18.1867H17.2914L16.7398 17.6352C16.5872 17.4826 16.3872 17.4062 16.1874 17.4062C15.9876 17.4062 15.7876 17.4826 15.6351 17.6352C15.33 17.9402 15.33 18.4348 15.6351 18.7398L16.1874 19.2922V22.0938C16.1874 22.5256 16.5369 22.875 16.9687 22.875C17.4005 22.875 17.75 22.5256 17.75 22.0938V20.8547L20.3226 23.4273C20.6277 23.7324 21.1222 23.7324 21.4273 23.4273C21.7324 23.1223 21.7326 22.6277 21.4273 22.3227Z" fill="#ECC94B"/>
<path d="M32.8203 22.5V6.5H36.1484V12.5156H36.25C36.3958 12.1927 36.6068 11.8646 36.8828 11.5312C37.1641 11.1927 37.5286 10.9115 37.9766 10.6875C38.4297 10.4583 38.9922 10.3438 39.6641 10.3438C40.5391 10.3438 41.3464 10.5729 42.0859 11.0313C42.8255 11.4844 43.4167 12.1693 43.8594 13.0859C44.3021 13.9974 44.5234 15.1406 44.5234 16.5156C44.5234 17.8542 44.3073 18.9844 43.875 19.9062C43.4479 20.8229 42.8646 21.5182 42.125 21.9922C41.3906 22.4609 40.5677 22.6953 39.6562 22.6953C39.0104 22.6953 38.4609 22.5885 38.0078 22.375C37.5599 22.1615 37.1927 21.8932 36.9063 21.5703C36.6198 21.2422 36.401 20.9115 36.25 20.5781H36.1016V22.5H32.8203ZM36.0781 16.5C36.0781 17.2135 36.1771 17.8359 36.375 18.3672C36.5729 18.8984 36.8594 19.3125 37.2344 19.6094C37.6094 19.901 38.0651 20.0469 38.6016 20.0469C39.1432 20.0469 39.6016 19.8984 39.9766 19.6016C40.3516 19.2995 40.6354 18.8828 40.8281 18.3516C41.026 17.8151 41.125 17.1979 41.125 16.5C41.125 15.8073 41.0286 15.1979 40.8359 14.6719C40.6432 14.1458 40.3594 13.7344 39.9844 13.4375C39.6094 13.1406 39.1484 12.9922 38.6016 12.9922C38.0599 12.9922 37.6016 13.1354 37.2266 13.4219C36.8568 13.7083 36.5729 14.1146 36.375 14.6406C36.1771 15.1667 36.0781 15.7865 36.0781 16.5ZM52.166 22.7344C50.9525 22.7344 49.903 22.4766 49.0176 21.9609C48.1374 21.4401 47.4577 20.7161 46.9785 19.7891C46.4993 18.8568 46.2598 17.776 46.2598 16.5469C46.2598 15.3073 46.4993 14.224 46.9785 13.2969C47.4577 12.3646 48.1374 11.6406 49.0176 11.125C49.903 10.6042 50.9525 10.3438 52.166 10.3438C53.3796 10.3438 54.4264 10.6042 55.3066 11.125C56.1921 11.6406 56.8743 12.3646 57.3535 13.2969C57.8327 14.224 58.0723 15.3073 58.0723 16.5469C58.0723 17.776 57.8327 18.8568 57.3535 19.7891C56.8743 20.7161 56.1921 21.4401 55.3066 21.9609C54.4264 22.4766 53.3796 22.7344 52.166 22.7344ZM52.1816 20.1562C52.7337 20.1562 53.1947 20 53.5645 19.6875C53.9342 19.3698 54.2129 18.9375 54.4004 18.3906C54.5931 17.8437 54.6895 17.2214 54.6895 16.5234C54.6895 15.8255 54.5931 15.2031 54.4004 14.6562C54.2129 14.1094 53.9342 13.6771 53.5645 13.3594C53.1947 13.0417 52.7337 12.8828 52.1816 12.8828C51.6243 12.8828 51.1556 13.0417 50.7754 13.3594C50.4004 13.6771 50.1165 14.1094 49.9238 14.6562C49.7363 15.2031 49.6426 15.8255 49.6426 16.5234C49.6426 17.2214 49.7363 17.8437 49.9238 18.3906C50.1165 18.9375 50.4004 19.3698 50.7754 19.6875C51.1556 20 51.6243 20.1562 52.1816 20.1562ZM67.9316 17.3906V10.5H71.2598V22.5H68.0645V20.3203H67.9395C67.6686 21.0234 67.2181 21.5885 66.5879 22.0156C65.9629 22.4427 65.1999 22.6563 64.2988 22.6563C63.4967 22.6563 62.791 22.474 62.1816 22.1094C61.5723 21.7448 61.0957 21.2266 60.752 20.5547C60.4134 19.8828 60.2415 19.0781 60.2363 18.1406V10.5H63.5645V17.5469C63.5697 18.2552 63.7598 18.8151 64.1348 19.2266C64.5098 19.638 65.0124 19.8437 65.6426 19.8437C66.0436 19.8437 66.4186 19.7526 66.7676 19.5703C67.1165 19.3828 67.3978 19.1068 67.6113 18.7422C67.8301 18.3776 67.9368 17.9271 67.9316 17.3906ZM77.25 15.5625V22.5H73.9219V10.5H77.0938V12.6172H77.2344C77.5 11.9193 77.9453 11.3672 78.5703 10.9609C79.1953 10.5495 79.9531 10.3438 80.8438 10.3438C81.6771 10.3438 82.4036 10.526 83.0234 10.8906C83.6432 11.2552 84.125 11.776 84.4688 12.4531C84.8125 13.125 84.9844 13.9271 84.9844 14.8594V22.5H81.6563V15.4531C81.6615 14.7187 81.474 14.1458 81.0938 13.7344C80.7135 13.3177 80.1901 13.1094 79.5234 13.1094C79.0755 13.1094 78.6797 13.2057 78.3359 13.3984C77.9974 13.5911 77.7318 13.8724 77.5391 14.2422C77.3516 14.6068 77.2552 15.0469 77.25 15.5625ZM93.9902 10.5V13H86.7637V10.5H93.9902ZM88.4043 7.625H91.7324V18.8125C91.7324 19.1198 91.7793 19.3594 91.873 19.5312C91.9668 19.6979 92.097 19.8151 92.2637 19.8828C92.4355 19.9505 92.6335 19.9844 92.8574 19.9844C93.0137 19.9844 93.1699 19.9714 93.3262 19.9453C93.4824 19.9141 93.6022 19.8906 93.6855 19.875L94.209 22.3516C94.0423 22.4036 93.8079 22.4635 93.5059 22.5313C93.2038 22.6042 92.8366 22.6484 92.4043 22.6641C91.6022 22.6953 90.8991 22.5885 90.2949 22.3437C89.696 22.099 89.2298 21.7187 88.8965 21.2031C88.5632 20.6875 88.3991 20.0365 88.4043 19.25V7.625ZM96.1582 22.5V10.5H99.3848V12.5937H99.5098C99.7285 11.849 100.096 11.2865 100.611 10.9063C101.127 10.5208 101.721 10.3281 102.393 10.3281C102.559 10.3281 102.739 10.3385 102.932 10.3594C103.124 10.3802 103.294 10.4089 103.439 10.4453V13.3984C103.283 13.3516 103.067 13.3099 102.791 13.2734C102.515 13.237 102.262 13.2188 102.033 13.2188C101.544 13.2188 101.106 13.3255 100.721 13.5391C100.34 13.7474 100.038 14.0391 99.8145 14.4141C99.5957 14.7891 99.4863 15.2214 99.4863 15.7109V22.5H96.1582ZM110.07 22.7344C108.836 22.7344 107.773 22.4844 106.883 21.9844C105.997 21.4792 105.315 20.7656 104.836 19.8437C104.357 18.9167 104.117 17.8203 104.117 16.5547C104.117 15.3203 104.357 14.237 104.836 13.3047C105.315 12.3724 105.99 11.6458 106.859 11.125C107.734 10.6042 108.76 10.3438 109.938 10.3438C110.729 10.3438 111.466 10.4714 112.148 10.7266C112.836 10.9766 113.435 11.3542 113.945 11.8594C114.461 12.3646 114.862 13 115.148 13.7656C115.435 14.526 115.578 15.4167 115.578 16.4375V17.3516H105.445V15.2891H112.445C112.445 14.8099 112.341 14.3854 112.133 14.0156C111.924 13.6458 111.635 13.3568 111.266 13.1484C110.901 12.9349 110.477 12.8281 109.992 12.8281C109.487 12.8281 109.039 12.9453 108.648 13.1797C108.263 13.4089 107.961 13.7187 107.742 14.1094C107.523 14.4948 107.411 14.9245 107.406 15.3984V17.3594C107.406 17.9531 107.516 18.4661 107.734 18.8984C107.958 19.3307 108.273 19.6641 108.68 19.8984C109.086 20.1328 109.568 20.25 110.125 20.25C110.495 20.25 110.833 20.1979 111.141 20.0938C111.448 19.9896 111.711 19.8333 111.93 19.625C112.148 19.4167 112.315 19.1615 112.43 18.8594L115.508 19.0625C115.352 19.8021 115.031 20.4479 114.547 21C114.068 21.5469 113.448 21.974 112.688 22.2813C111.932 22.5833 111.06 22.7344 110.07 22.7344ZM123.219 22.7344C121.984 22.7344 120.922 22.4844 120.031 21.9844C119.146 21.4792 118.464 20.7656 117.984 19.8437C117.505 18.9167 117.266 17.8203 117.266 16.5547C117.266 15.3203 117.505 14.237 117.984 13.3047C118.464 12.3724 119.138 11.6458 120.008 11.125C120.883 10.6042 121.909 10.3438 123.086 10.3438C123.878 10.3438 124.615 10.4714 125.297 10.7266C125.984 10.9766 126.583 11.3542 127.094 11.8594C127.609 12.3646 128.01 13 128.297 13.7656C128.583 14.526 128.727 15.4167 128.727 16.4375V17.3516H118.594V15.2891H125.594C125.594 14.8099 125.49 14.3854 125.281 14.0156C125.073 13.6458 124.784 13.3568 124.414 13.1484C124.049 12.9349 123.625 12.8281 123.141 12.8281C122.635 12.8281 122.188 12.9453 121.797 13.1797C121.411 13.4089 121.109 13.7187 120.891 14.1094C120.672 14.4948 120.56 14.9245 120.555 15.3984V17.3594C120.555 17.9531 120.664 18.4661 120.883 18.8984C121.107 19.3307 121.422 19.6641 121.828 19.8984C122.234 20.1328 122.716 20.25 123.273 20.25C123.643 20.25 123.982 20.1979 124.289 20.0938C124.596 19.9896 124.859 19.8333 125.078 19.625C125.297 19.4167 125.464 19.1615 125.578 18.8594L128.656 19.0625C128.5 19.8021 128.18 20.4479 127.695 21C127.216 21.5469 126.596 21.974 125.836 22.2813C125.081 22.5833 124.208 22.7344 123.219 22.7344Z" fill="black"/>
</svg>
