<svg width="32" height="31" viewBox="0 0 32 31" fill="none" xmlns="http://www.w3.org/2000/svg">
<path d="M12.8979 21.5113C12.5164 20.5707 11.8197 19.7921 10.9272 19.3087C10.0347 18.8254 9.00194 18.6674 8.00575 18.8618C7.00956 19.0562 6.11196 19.5909 5.46669 20.3744C4.82142 21.1578 4.46863 22.1413 4.46875 23.1563C4.46875 23.6056 4.37647 24.0501 4.19762 24.4623C4.01877 24.8745 3.75717 25.2456 3.42902 25.5526C3.10088 25.8595 2.71319 26.0958 2.28999 26.2468C1.86678 26.3977 1.41708 26.4602 0.96875 26.4302C1.68982 27.6829 2.80426 28.6624 4.13905 29.2168C5.47385 29.7712 6.95434 29.8694 8.35068 29.4963C9.74703 29.1231 10.9811 28.2993 11.8614 27.1529C12.7416 26.0066 13.2188 24.6016 13.2187 23.1563C13.2187 22.5744 13.105 22.0188 12.8979 21.5113ZM12.8979 21.5113C14.6319 20.9205 16.2903 20.1275 17.8388 19.1488M10.4844 19.1123C11.0753 17.3747 11.8693 15.7128 12.8498 14.1613M17.8373 19.1488C20.6028 17.4015 22.9699 15.0921 24.7848 12.3704L30.4373 3.89169C30.6538 3.56876 30.7515 3.18067 30.7138 2.7937C30.676 2.40673 30.505 2.04489 30.2301 1.76996C29.9551 1.49503 29.5933 1.32407 29.2063 1.28627C28.8194 1.24848 28.4313 1.3462 28.1083 1.56274L19.6296 7.21669C16.9076 9.03106 14.5977 11.3976 12.8498 14.1627C15.0692 15.1551 16.8449 16.9308 17.8373 19.1502" stroke="white" stroke-width="1.5" stroke-linecap="round" stroke-linejoin="round"/>
</svg>
