<svg width="29" height="27" viewBox="0 0 29 27" fill="none" xmlns="http://www.w3.org/2000/svg">
<path d="M6.84375 6.9375L11.2188 10.2188L6.84375 13.5M13.4063 13.5H17.7813M4.65625 25.5313H24.3438C25.214 25.5313 26.0486 25.1855 26.6639 24.5702C27.2793 23.9548 27.625 23.1202 27.625 22.25V4.75C27.625 3.87976 27.2793 3.04516 26.6639 2.42981C26.0486 1.81445 25.214 1.46875 24.3438 1.46875H4.65625C3.78601 1.46875 2.95141 1.81445 2.33606 2.42981C1.7207 3.04516 1.375 3.87976 1.375 4.75V22.25C1.375 23.1202 1.7207 23.9548 2.33606 24.5702C2.95141 25.1855 3.78601 25.5313 4.65625 25.5313Z" stroke="white" stroke-width="1.5" stroke-linecap="round" stroke-linejoin="round"/>
</svg>
