<svg width="58" height="58" viewBox="0 0 58 58" fill="none" xmlns="http://www.w3.org/2000/svg">
<path d="M44.7838 0C37.4842 0 31.5675 5.91659 31.5675 13.2161V23.7626L28.3446 26.9855C27.6074 27.7228 27.6074 28.9179 28.3446 29.6551C28.7133 30.0238 29.1966 30.2083 29.6795 30.2083C30.1624 30.2083 30.6457 30.0238 31.0143 29.6551L34.2372 26.4323H44.7838C52.0834 26.4323 58 20.5157 58 13.2161V0H44.7838ZM51.7827 8.88691L45.5635 15.1061H48.5598C49.6035 15.1061 50.4479 15.9505 50.4479 16.9941C50.4479 18.0377 49.6035 18.8821 48.5598 18.8821H41.7875L40.4545 20.215C40.0859 20.5837 39.6025 20.7682 39.1197 20.7682C38.6368 20.7682 38.1535 20.5837 37.7848 20.215C37.0475 19.4778 37.0475 18.2827 37.7848 17.5454L39.1197 16.2105V9.4401C39.1197 8.3965 39.9641 7.55208 41.0077 7.55208C42.0513 7.55208 42.8957 8.3965 42.8957 9.4401V12.4345L49.113 6.21725C49.8503 5.47998 51.0454 5.47998 51.7827 6.21725C52.52 6.95452 52.5205 8.14964 51.7827 8.88691Z" fill="#ECC94B"/>
<path d="M13.2162 0C20.5158 0 26.4325 5.91659 26.4325 13.2161V23.7626L29.6554 26.9855C30.3926 27.7228 30.3926 28.9179 29.6554 29.6551C29.2867 30.0238 28.8034 30.2083 28.3205 30.2083C27.8376 30.2083 27.3543 30.0238 26.9857 29.6551L23.7628 26.4323H13.2162C5.91661 26.4323 -2.16943e-05 20.5157 -2.16943e-05 13.2161V0H13.2162ZM6.21728 8.88691L12.4365 15.1061H9.44016C8.39654 15.1061 7.55212 15.9505 7.55212 16.9941C7.55212 18.0377 8.39654 18.8821 9.44016 18.8821H16.2125L17.5455 20.215C17.9141 20.5837 18.3975 20.7682 18.8803 20.7682C19.3632 20.7682 19.8465 20.5837 20.2152 20.215C20.9525 19.4778 20.9525 18.2827 20.2152 17.5454L18.8803 16.2105V9.4401C18.8803 8.3965 18.0359 7.55208 16.9923 7.55208C15.9487 7.55208 15.1043 8.3965 15.1043 9.4401V12.4345L8.88696 6.21725C8.14969 5.47998 6.95456 5.47998 6.21728 6.21725C5.48 6.95452 5.47953 8.14964 6.21728 8.88691Z" fill="#ECC94B"/>
<path d="M44.7838 58C37.4842 58 31.5675 52.0834 31.5675 44.7839V34.2374L28.3446 31.0145C27.6074 30.2772 27.6074 29.0821 28.3446 28.3449C28.7133 27.9762 29.1966 27.7917 29.6795 27.7917C30.1624 27.7917 30.6457 27.9762 31.0143 28.3449L34.2372 31.5677H44.7838C52.0834 31.5677 58 37.4843 58 44.7839V58H44.7838ZM51.7827 49.1131L45.5635 42.8939H48.5598C49.6035 42.8939 50.4479 42.0495 50.4479 41.0059C50.4479 39.9623 49.6035 39.1179 48.5598 39.1179H41.7875L40.4545 37.785C40.0859 37.4163 39.6025 37.2318 39.1197 37.2318C38.6368 37.2318 38.1535 37.4163 37.7848 37.785C37.0475 38.5222 37.0475 39.7173 37.7848 40.4546L39.1197 41.7895V48.5599C39.1197 49.6035 39.9641 50.4479 41.0077 50.4479C42.0513 50.4479 42.8957 49.6035 42.8957 48.5599V45.5655L49.113 51.7827C49.8503 52.52 51.0454 52.52 51.7827 51.7827C52.52 51.0455 52.5205 49.8504 51.7827 49.1131Z" fill="#ECC94B"/>
</svg>
