<svg width="20" height="21" viewBox="0 0 20 21" fill="none" xmlns="http://www.w3.org/2000/svg">
<path d="M4.48003 20.8946H0.336024V7.54973H4.48003V20.8946ZM2.4058 5.72937C1.08068 5.72937 0.00585938 4.63179 0.00585938 3.30668C0.00585938 2.67017 0.258709 2.05974 0.708785 1.60966C1.15886 1.15959 1.76929 0.906738 2.4058 0.906738C3.0423 0.906738 3.65273 1.15959 4.10281 1.60966C4.55288 2.05974 4.80573 2.67017 4.80573 3.30668C4.80573 4.63179 3.73047 5.72937 2.4058 5.72937ZM19.9897 20.8946H15.8546V14.3984C15.8546 12.8502 15.8234 10.8648 13.7001 10.8648C11.5455 10.8648 11.2154 12.5468 11.2154 14.2869V20.8946H7.07584V7.54973H11.0503V9.3701H11.1083C11.6616 8.3216 13.013 7.21511 15.0292 7.21511C19.2232 7.21511 19.9942 9.97689 19.9942 13.5641V20.8946H19.9897Z" fill="#F2F2F2"/>
</svg>
