<svg width="138" height="32" viewBox="0 0 138 32" fill="none" xmlns="http://www.w3.org/2000/svg">
<g clip-path="url(#clip0_90_3)">
<path d="M6.99335 11.3964H9.27555C10.9313 11.3964 12.3408 11.6649 13.5043 12.2018C14.6678 12.7388 15.5572 13.494 16.1725 14.4672C16.7878 15.4405 17.0954 16.5984 17.0954 17.9409C17.0954 19.4847 16.7934 20.7992 16.1892 21.8844C15.5963 22.9695 14.7405 23.7974 13.6218 24.3679C12.503 24.9385 11.1718 25.2238 9.62794 25.2238C8.74415 25.2238 7.84359 25.0951 6.92623 24.8378C6.00888 24.5694 5.15864 24.1554 4.37553 23.5961C3.60362 23.0367 2.98273 22.3263 2.51287 21.4648C2.043 20.5923 1.80807 19.5519 1.80807 18.3436L3.58684 18.1255C3.58684 18.7408 3.7938 19.3002 4.20773 19.8036C4.62166 20.307 5.1978 20.7097 5.93616 21.0118C6.67451 21.3026 7.53593 21.4481 8.52041 21.4481C9.3147 21.4481 9.98594 21.2915 10.5341 20.9783C11.0935 20.665 11.5186 20.2398 11.8095 19.7029C12.1115 19.1659 12.2626 18.5562 12.2626 17.8738C12.2626 17.0683 12.1228 16.3747 11.843 15.793C11.5633 15.2001 11.1494 14.7469 10.6012 14.4337C10.0531 14.1093 9.38183 13.9471 8.58753 13.9471H6.99335V11.3964ZM8.15123 0.119629C9.73981 0.119629 11.1214 0.382529 12.2961 0.908329C13.4819 1.42294 14.3993 2.17249 15.0481 3.15697C15.6971 4.13026 16.0214 5.3161 16.0214 6.7145C16.0214 7.86679 15.7193 8.9072 15.1153 9.83574C14.5112 10.7643 13.6665 11.5026 12.5814 12.0508C11.4962 12.5989 10.2265 12.873 8.77212 12.873H6.99335V10.507H8.08411C8.82246 10.507 9.41539 10.3671 9.86287 10.0875C10.3216 9.80778 10.6516 9.41063 10.8529 8.89601C11.0655 8.38141 11.1718 7.7661 11.1718 7.05012C11.1718 6.50195 11.0599 5.98733 10.8362 5.50628C10.6236 5.02524 10.2936 4.63927 9.84609 4.34841C9.39861 4.04635 8.83365 3.89532 8.15123 3.89532C7.52474 3.89532 6.95979 4.04635 6.45636 4.34841C5.96413 4.63927 5.57257 5.05321 5.2817 5.59019C5.00202 6.12718 4.86219 6.76485 4.86219 7.50321V31.6845H0.0292969V7.50321C0.0292969 6.02648 0.398476 4.73436 1.13683 3.62682C1.87519 2.51929 2.85408 1.65787 4.07348 1.04258C5.30408 0.427278 6.66332 0.119629 8.15123 0.119629ZM19.4447 15.9943V15.642C19.4447 14.3107 19.6349 13.0856 20.0152 11.9669C20.3956 10.837 20.9494 9.85812 21.6766 9.03026C22.4038 8.2024 23.2987 7.55914 24.3615 7.10046C25.4243 6.6306 26.6437 6.39567 28.0197 6.39567C29.3958 6.39567 30.6208 6.6306 31.6947 7.10046C32.7688 7.55914 33.6693 8.2024 34.3965 9.03026C35.1348 9.85812 35.6943 10.837 36.0745 11.9669C36.455 13.0856 36.6452 14.3107 36.6452 15.642V15.9943C36.6452 17.3144 36.455 18.5394 36.0745 19.6693C35.6943 20.788 35.1348 21.7669 34.3965 22.606C33.6693 23.4338 32.7743 24.0771 31.7116 24.5357C30.6488 24.9945 29.4294 25.2238 28.0534 25.2238C26.6773 25.2238 25.4522 24.9945 24.3783 24.5357C23.3156 24.0771 22.415 23.4338 21.6766 22.606C20.9494 21.7669 20.3956 20.788 20.0152 19.6693C19.6349 18.5394 19.4447 17.3144 19.4447 15.9943ZM24.2776 15.642V15.9943C24.2776 16.755 24.3448 17.4654 24.4789 18.1255C24.6132 18.7855 24.8258 19.3673 25.1166 19.8707C25.4187 20.363 25.8103 20.7489 26.2913 21.0286C26.7724 21.3083 27.3597 21.4481 28.0534 21.4481C28.7246 21.4481 29.3007 21.3083 29.7818 21.0286C30.2628 20.7489 30.6488 20.363 30.9396 19.8707C31.2306 19.3673 31.443 18.7855 31.5773 18.1255C31.7227 17.4654 31.7955 16.755 31.7955 15.9943V15.642C31.7955 14.9036 31.7227 14.2099 31.5773 13.5611C31.443 12.901 31.2249 12.3193 30.9229 11.8159C30.632 11.3013 30.246 10.8985 29.765 10.6077C29.2839 10.3168 28.7022 10.1714 28.0197 10.1714C27.3373 10.1714 26.7556 10.3168 26.2746 10.6077C25.8047 10.8985 25.4187 11.3013 25.1166 11.8159C24.8258 12.3193 24.6132 12.901 24.4789 13.5611C24.3448 14.2099 24.2776 14.9036 24.2776 15.642ZM50.3551 20.5419V6.73128H55.1879V24.8882H50.6403L50.3551 20.5419ZM50.892 16.8166L52.3184 16.783C52.3184 17.9913 52.1785 19.1155 51.8989 20.1559C51.6192 21.1852 51.1997 22.0801 50.6403 22.841C50.081 23.5904 49.3762 24.1778 48.526 24.6029C47.6757 25.0169 46.6745 25.2238 45.5222 25.2238C44.6384 25.2238 43.8217 25.1008 43.0722 24.8546C42.3339 24.5974 41.6962 24.2001 41.1591 23.6632C40.6334 23.1149 40.2195 22.4157 39.9174 21.5656C39.6266 20.7041 39.481 19.6693 39.481 18.4612V6.73128H44.314V18.4947C44.314 19.0316 44.3755 19.4847 44.4985 19.854C44.6328 20.2231 44.8174 20.5252 45.0523 20.7601C45.2872 20.995 45.5613 21.1628 45.8745 21.2635C46.199 21.3642 46.557 21.4145 46.9486 21.4145C47.9443 21.4145 48.7274 21.2131 49.2979 20.8104C49.8796 20.4076 50.288 19.8595 50.5229 19.1659C50.769 18.4612 50.892 17.6781 50.892 16.8166ZM63.6119 10.6077V24.8882H58.7791V6.73128H63.31L63.6119 10.6077ZM62.9071 15.1721H61.5982C61.5982 13.8296 61.7716 12.6213 62.1185 11.5474C62.4652 10.4622 62.9519 9.53929 63.5784 8.77855C64.2049 8.00663 64.9488 7.4193 65.8102 7.01656C66.6828 6.60263 67.6561 6.39567 68.7301 6.39567C69.5803 6.39567 70.3578 6.51873 71.0626 6.76485C71.7675 7.01096 72.3715 7.40252 72.8749 7.9395C73.3896 8.4765 73.7812 9.18688 74.0497 10.0707C74.3294 10.9545 74.4692 12.034 74.4692 13.3094V24.8882H69.6027V13.2926C69.6027 12.4871 69.4908 11.8606 69.2671 11.4131C69.0433 10.9657 68.7133 10.6524 68.2771 10.4734C67.8519 10.2832 67.3261 10.1881 66.6996 10.1881C66.0508 10.1881 65.4859 10.3168 65.0047 10.5741C64.5348 10.8314 64.1433 11.1894 63.8301 11.6481C63.528 12.0955 63.2987 12.6213 63.142 13.2255C62.9855 13.8296 62.9071 14.4785 62.9071 15.1721Z" fill="#FFD966"/>
<path d="M87.0382 6.73122V10.1545H76.4663V6.73122H87.0382ZM79.0841 2.25073H83.917V19.4176C83.917 19.9434 83.9842 20.3461 84.1183 20.6257C84.2639 20.9054 84.4764 21.1012 84.756 21.2131C85.0357 21.3138 85.3881 21.3642 85.8132 21.3642C86.1153 21.3642 86.3839 21.3529 86.6187 21.3305C86.8649 21.297 87.0718 21.2634 87.2396 21.2299L87.2564 24.7874C86.8425 24.9216 86.395 25.0279 85.914 25.1063C85.4329 25.1846 84.9016 25.2237 84.3198 25.2237C83.257 25.2237 82.3284 25.0503 81.5342 24.7035C80.7511 24.3456 80.1469 23.775 79.7218 22.9919C79.2967 22.2088 79.0841 21.1795 79.0841 19.9041V2.25073ZM94.6232 10.6915V24.8881H89.7904V6.73122H94.338L94.6232 10.6915ZM100.094 6.61375L100.01 11.0942C99.775 11.0607 99.4896 11.0327 99.154 11.0103C98.8296 10.9768 98.5331 10.96 98.2647 10.96C97.5822 10.96 96.9893 11.0495 96.4859 11.2285C95.9936 11.3963 95.5797 11.648 95.2441 11.9836C94.9197 12.3192 94.6736 12.7276 94.5058 13.2086C94.3491 13.6897 94.2596 14.2378 94.2372 14.8531L93.2639 14.551C93.2639 13.3764 93.3815 12.2969 93.6164 11.3124C93.8512 10.3167 94.1926 9.44972 94.64 8.71136C95.0987 7.973 95.658 7.40246 96.3181 6.99971C96.9781 6.59697 97.7333 6.39561 98.5835 6.39561C98.852 6.39561 99.126 6.41798 99.4057 6.46273C99.6855 6.49629 99.9148 6.54663 100.094 6.61375ZM110.397 25.2237C108.988 25.2237 107.724 25 106.605 24.5525C105.486 24.0939 104.535 23.4617 103.752 22.6563C102.98 21.8508 102.387 20.9167 101.973 19.8539C101.559 18.7799 101.352 17.6388 101.352 16.4306V15.7593C101.352 14.3832 101.548 13.1247 101.94 11.9836C102.331 10.8425 102.891 9.85246 103.618 9.01341C104.356 8.17437 105.251 7.53111 106.303 7.08361C107.354 6.62494 108.54 6.39561 109.86 6.39561C111.147 6.39561 112.288 6.60816 113.284 7.03327C114.279 7.45839 115.113 8.0625 115.784 8.84561C116.466 9.62872 116.981 10.5684 117.328 11.6648C117.674 12.75 117.848 13.9582 117.848 15.2895V17.3031H103.416V14.0813H113.099V13.712C113.099 13.0408 112.976 12.4423 112.73 11.9165C112.495 11.3795 112.137 10.9544 111.656 10.6412C111.175 10.3279 110.559 10.1713 109.81 10.1713C109.172 10.1713 108.624 10.3111 108.165 10.5908C107.707 10.8705 107.332 11.262 107.041 11.7655C106.761 12.2689 106.549 12.8618 106.403 13.5442C106.269 14.2154 106.202 14.9539 106.202 15.7593V16.4306C106.202 17.1577 106.303 17.829 106.504 18.4443C106.717 19.0595 107.013 19.5909 107.393 20.0384C107.785 20.4859 108.255 20.8328 108.803 21.0788C109.362 21.3249 109.994 21.4481 110.699 21.4481C111.572 21.4481 112.383 21.2803 113.133 20.9446C113.893 20.5978 114.548 20.0776 115.096 19.384L117.445 21.9347C117.065 22.4829 116.545 23.0087 115.885 23.5121C115.236 24.0155 114.453 24.4295 113.535 24.7538C112.618 25.0671 111.572 25.2237 110.397 25.2237ZM128.956 25.2237C127.547 25.2237 126.283 25 125.164 24.5525C124.045 24.0939 123.095 23.4617 122.312 22.6563C121.54 21.8508 120.946 20.9167 120.533 19.8539C120.119 18.7799 119.912 17.6388 119.912 16.4306V15.7593C119.912 14.3832 120.107 13.1247 120.5 11.9836C120.891 10.8425 121.45 9.85246 122.178 9.01341C122.916 8.17437 123.811 7.53111 124.862 7.08361C125.914 6.62494 127.099 6.39561 128.42 6.39561C129.707 6.39561 130.848 6.60816 131.843 7.03327C132.839 7.45839 133.672 8.0625 134.344 8.84561C135.026 9.62872 135.541 10.5684 135.888 11.6648C136.234 12.75 136.407 13.9582 136.407 15.2895V17.3031H121.976V14.0813H131.658V13.712C131.658 13.0408 131.535 12.4423 131.29 11.9165C131.054 11.3795 130.696 10.9544 130.215 10.6412C129.734 10.3279 129.119 10.1713 128.37 10.1713C127.732 10.1713 127.184 10.3111 126.725 10.5908C126.266 10.8705 125.892 11.262 125.6 11.7655C125.321 12.2689 125.108 12.8618 124.963 13.5442C124.829 14.2154 124.761 14.9539 124.761 15.7593V16.4306C124.761 17.1577 124.862 17.829 125.063 18.4443C125.277 19.0595 125.573 19.5909 125.953 20.0384C126.344 20.4859 126.815 20.8328 127.362 21.0788C127.922 21.3249 128.555 21.4481 129.259 21.4481C130.132 21.4481 130.943 21.2803 131.692 20.9446C132.452 20.5978 133.108 20.0776 133.655 19.384L136.005 21.9347C135.625 22.4829 135.105 23.0087 134.444 23.5121C133.795 24.0155 133.012 24.4295 132.094 24.7538C131.177 25.0671 130.132 25.2237 128.956 25.2237Z" fill="#1B262C"/>
</g>
<defs>
<clipPath id="clip0_90_3">
<rect width="137.469" height="31.997" fill="white" transform="translate(0 0.00146484)"/>
</clipPath>
</defs>
</svg>
