<svg
			width="116"
			height="27"
			viewBox="0 0 116 27"
			fill="none"
			xmlns="http://www.w3.org/2000/svg"
		>
			<path
				d="M5.90137 9.61523H7.82715C9.22428 9.61523 10.4137 9.8418 11.3955 10.2949C12.3773 10.748 13.1278 11.3853 13.647 12.2065C14.1662 13.0278 14.4258 14.0049 14.4258 15.1377C14.4258 16.4404 14.1709 17.5496 13.6611 18.4653C13.1608 19.381 12.4386 20.0796 11.4946 20.561C10.5506 21.0425 9.42725 21.2832 8.12451 21.2832C7.37874 21.2832 6.61882 21.1746 5.84473 20.9575C5.07064 20.731 4.35319 20.3817 3.69238 19.9097C3.04102 19.4377 2.51709 18.8382 2.12061 18.1113C1.72412 17.375 1.52588 16.4971 1.52588 15.4775L3.02686 15.2935C3.02686 15.8127 3.2015 16.2847 3.55078 16.7095C3.90007 17.1343 4.38623 17.4741 5.00928 17.729C5.63232 17.9744 6.35921 18.0972 7.18994 18.0972C7.86019 18.0972 8.4266 17.965 8.88916 17.7007C9.36117 17.4364 9.71989 17.0776 9.96533 16.6245C10.2202 16.1714 10.3477 15.6569 10.3477 15.0811C10.3477 14.4014 10.2297 13.8161 9.99365 13.3252C9.75765 12.8249 9.40837 12.4425 8.9458 12.1782C8.48324 11.9045 7.91683 11.7676 7.24658 11.7676H5.90137V9.61523ZM6.87842 0.0996094C8.21891 0.0996094 9.38477 0.321452 10.376 0.765137C11.3766 1.19938 12.1507 1.83187 12.6982 2.6626C13.2458 3.48389 13.5195 4.48454 13.5195 5.66455C13.5195 6.63688 13.2646 7.51481 12.7549 8.29834C12.2451 9.08187 11.5324 9.70492 10.6167 10.1675C9.70101 10.63 8.62956 10.8613 7.40234 10.8613H5.90137V8.86475H6.82178C7.44482 8.86475 7.94515 8.74674 8.32275 8.51074C8.7098 8.27474 8.98828 7.93962 9.1582 7.50537C9.33757 7.07113 9.42725 6.55192 9.42725 5.94775C9.42725 5.48519 9.33285 5.05094 9.14404 4.64502C8.96468 4.2391 8.6862 3.91341 8.30859 3.66797C7.93099 3.41309 7.45426 3.28564 6.87842 3.28564C6.34977 3.28564 5.87305 3.41309 5.44824 3.66797C5.03288 3.91341 4.70247 4.2627 4.45703 4.71582C4.22103 5.16895 4.10303 5.70703 4.10303 6.33008V26.7349H0.0249023V6.33008C0.0249023 5.08398 0.336426 3.99365 0.959473 3.05908C1.58252 2.12451 2.40853 1.39762 3.4375 0.878418C4.47591 0.359212 5.62288 0.0996094 6.87842 0.0996094ZM16.4082 13.4951V13.1978C16.4082 12.0744 16.5687 11.0407 16.8896 10.0967C17.2106 9.14323 17.6779 8.31722 18.2915 7.61865C18.9051 6.92008 19.6603 6.37728 20.5571 5.99023C21.4539 5.59375 22.4829 5.39551 23.644 5.39551C24.8052 5.39551 25.8389 5.59375 26.7451 5.99023C27.6514 6.37728 28.4113 6.92008 29.0249 7.61865C29.6479 8.31722 30.12 9.14323 30.4409 10.0967C30.7619 11.0407 30.9224 12.0744 30.9224 13.1978V13.4951C30.9224 14.609 30.7619 15.6427 30.4409 16.5962C30.12 17.5402 29.6479 18.3662 29.0249 19.0742C28.4113 19.7728 27.6561 20.3156 26.7593 20.7026C25.8625 21.0897 24.8335 21.2832 23.6724 21.2832C22.5112 21.2832 21.4775 21.0897 20.5713 20.7026C19.6745 20.3156 18.9146 19.7728 18.2915 19.0742C17.6779 18.3662 17.2106 17.5402 16.8896 16.5962C16.5687 15.6427 16.4082 14.609 16.4082 13.4951ZM20.4863 13.1978V13.4951C20.4863 14.137 20.543 14.7365 20.6562 15.2935C20.7695 15.8504 20.9489 16.3413 21.1943 16.7661C21.4492 17.1815 21.7796 17.5072 22.1855 17.7432C22.5915 17.9792 23.0871 18.0972 23.6724 18.0972C24.2388 18.0972 24.7249 17.9792 25.1309 17.7432C25.5368 17.5072 25.8625 17.1815 26.1079 16.7661C26.3534 16.3413 26.5327 15.8504 26.646 15.2935C26.7687 14.7365 26.8301 14.137 26.8301 13.4951V13.1978C26.8301 12.5747 26.7687 11.9894 26.646 11.4419C26.5327 10.8849 26.3486 10.394 26.0938 9.96924C25.8483 9.53499 25.5226 9.19515 25.1167 8.94971C24.7108 8.70426 24.2199 8.58154 23.644 8.58154C23.0682 8.58154 22.5773 8.70426 22.1714 8.94971C21.7749 9.19515 21.4492 9.53499 21.1943 9.96924C20.9489 10.394 20.7695 10.8849 20.6562 11.4419C20.543 11.9894 20.4863 12.5747 20.4863 13.1978ZM42.4912 17.3325V5.67871H46.5693V21H42.7319L42.4912 17.3325ZM42.9443 14.189L44.1479 14.1606C44.1479 15.1802 44.0299 16.1289 43.7939 17.0068C43.5579 17.8753 43.2039 18.6305 42.7319 19.2725C42.2599 19.9049 41.6652 20.4006 40.9478 20.7593C40.2303 21.1086 39.3854 21.2832 38.4131 21.2832C37.6673 21.2832 36.9782 21.1794 36.3457 20.9717C35.7227 20.7546 35.1846 20.4194 34.7314 19.9663C34.2878 19.5037 33.9385 18.9137 33.6836 18.1963C33.4382 17.4694 33.3154 16.5962 33.3154 15.5767V5.67871H37.3936V15.605C37.3936 16.0581 37.4455 16.4404 37.5493 16.752C37.6626 17.0635 37.8184 17.3184 38.0166 17.5166C38.2148 17.7148 38.4461 17.8564 38.7104 17.9414C38.9842 18.0264 39.2863 18.0688 39.6167 18.0688C40.4569 18.0688 41.1177 17.8989 41.5991 17.5591C42.09 17.2192 42.4346 16.7567 42.6328 16.1714C42.8405 15.5767 42.9443 14.9159 42.9443 14.189ZM53.6777 8.94971V21H49.5996V5.67871H53.4229L53.6777 8.94971ZM53.083 12.8013H51.9785C51.9785 11.6685 52.1248 10.6489 52.4175 9.74268C52.7101 8.82699 53.1208 8.04818 53.6494 7.40625C54.1781 6.75488 54.8058 6.25928 55.5327 5.91943C56.269 5.57015 57.0903 5.39551 57.9966 5.39551C58.714 5.39551 59.3701 5.49935 59.9648 5.70703C60.5596 5.91471 61.0693 6.24512 61.4941 6.69824C61.9284 7.15137 62.2588 7.75081 62.4854 8.49658C62.7214 9.24235 62.8394 10.1533 62.8394 11.2295V21H58.7329V11.2153C58.7329 10.5356 58.6385 10.007 58.4497 9.62939C58.2609 9.25179 57.9824 8.98747 57.6143 8.83643C57.2555 8.67594 56.8118 8.5957 56.2832 8.5957C55.7357 8.5957 55.259 8.70426 54.853 8.92139C54.4565 9.13851 54.1261 9.44059 53.8618 9.82764C53.6069 10.2052 53.4134 10.6489 53.2812 11.1587C53.1491 11.6685 53.083 12.216 53.083 12.8013Z"
				fill="#FFD966"
			/>
			<path
				d="M73.4453 5.67871V8.56738H64.5244V5.67871H73.4453ZM66.7334 1.89795H70.8115V16.3838C70.8115 16.8275 70.8682 17.1673 70.9814 17.4033C71.1042 17.6393 71.2835 17.8045 71.5195 17.8989C71.7555 17.9839 72.0529 18.0264 72.4116 18.0264C72.6665 18.0264 72.8931 18.0169 73.0913 17.998C73.299 17.9697 73.4736 17.9414 73.6152 17.9131L73.6294 20.915C73.2801 21.0283 72.9025 21.118 72.4966 21.1841C72.0907 21.2502 71.6423 21.2832 71.1514 21.2832C70.2546 21.2832 69.471 21.1369 68.8008 20.8442C68.14 20.5422 67.6302 20.0607 67.2715 19.3999C66.9128 18.7391 66.7334 17.8706 66.7334 16.7944V1.89795ZM79.8457 9.02051V21H75.7676V5.67871H79.605L79.8457 9.02051ZM84.4619 5.57959L84.3911 9.36035C84.1929 9.33203 83.9521 9.30843 83.6689 9.28955C83.3952 9.26123 83.145 9.24707 82.9185 9.24707C82.3426 9.24707 81.8423 9.32259 81.4175 9.47363C81.0021 9.61523 80.6528 9.82764 80.3696 10.1108C80.0959 10.394 79.8882 10.7386 79.7466 11.1445C79.6144 11.5505 79.5389 12.013 79.52 12.5322L78.6987 12.2773C78.6987 11.2861 78.7979 10.3752 78.9961 9.54443C79.1943 8.70426 79.4823 7.97266 79.8599 7.34961C80.2469 6.72656 80.7189 6.24512 81.2759 5.90527C81.8328 5.56543 82.4701 5.39551 83.1875 5.39551C83.4141 5.39551 83.6453 5.41439 83.8813 5.45215C84.1174 5.48047 84.3109 5.52295 84.4619 5.57959ZM93.1562 21.2832C91.9668 21.2832 90.9001 21.0944 89.9561 20.7168C89.012 20.3298 88.2096 19.7964 87.5488 19.1167C86.8975 18.437 86.3971 17.6488 86.0479 16.752C85.6986 15.8457 85.5239 14.8828 85.5239 13.8633V13.2969C85.5239 12.1357 85.6891 11.0737 86.0195 10.1108C86.3499 9.14795 86.8219 8.3125 87.4355 7.60449C88.0586 6.89648 88.8138 6.35368 89.7012 5.97607C90.5885 5.58903 91.5892 5.39551 92.7031 5.39551C93.7887 5.39551 94.7516 5.57487 95.5918 5.93359C96.432 6.29232 97.1353 6.80208 97.7017 7.46289C98.2775 8.1237 98.7118 8.91667 99.0044 9.8418C99.297 10.7575 99.4434 11.777 99.4434 12.9004V14.5996H87.2656V11.8809H95.436V11.5693C95.436 11.0029 95.3322 10.4979 95.1245 10.0542C94.9263 9.60107 94.6242 9.24235 94.2183 8.97803C93.8123 8.7137 93.2931 8.58154 92.6606 8.58154C92.1226 8.58154 91.66 8.69954 91.2729 8.93555C90.8859 9.17155 90.5697 9.50195 90.3242 9.92676C90.0882 10.3516 89.9089 10.8519 89.7861 11.4277C89.6729 11.9941 89.6162 12.6172 89.6162 13.2969V13.8633C89.6162 14.4769 89.7012 15.0433 89.8711 15.5625C90.0505 16.0817 90.3006 16.5301 90.6216 16.9077C90.952 17.2853 91.3485 17.578 91.811 17.7856C92.283 17.9933 92.8164 18.0972 93.4111 18.0972C94.1475 18.0972 94.8319 17.9556 95.4644 17.6724C96.1063 17.3797 96.6585 16.9408 97.1211 16.3555L99.1035 18.5078C98.7826 18.9704 98.3436 19.4141 97.7866 19.8389C97.2391 20.2637 96.5783 20.613 95.8042 20.8867C95.0301 21.151 94.1475 21.2832 93.1562 21.2832ZM108.817 21.2832C107.628 21.2832 106.561 21.0944 105.617 20.7168C104.673 20.3298 103.871 19.7964 103.21 19.1167C102.559 18.437 102.058 17.6488 101.709 16.752C101.36 15.8457 101.185 14.8828 101.185 13.8633V13.2969C101.185 12.1357 101.35 11.0737 101.681 10.1108C102.011 9.14795 102.483 8.3125 103.097 7.60449C103.72 6.89648 104.475 6.35368 105.362 5.97607C106.25 5.58903 107.25 5.39551 108.364 5.39551C109.45 5.39551 110.413 5.57487 111.253 5.93359C112.093 6.29232 112.796 6.80208 113.363 7.46289C113.939 8.1237 114.373 8.91667 114.666 9.8418C114.958 10.7575 115.104 11.777 115.104 12.9004V14.5996H102.927V11.8809H111.097V11.5693C111.097 11.0029 110.993 10.4979 110.786 10.0542C110.587 9.60107 110.285 9.24235 109.879 8.97803C109.473 8.7137 108.954 8.58154 108.322 8.58154C107.784 8.58154 107.321 8.69954 106.934 8.93555C106.547 9.17155 106.231 9.50195 105.985 9.92676C105.749 10.3516 105.57 10.8519 105.447 11.4277C105.334 11.9941 105.277 12.6172 105.277 13.2969V13.8633C105.277 14.4769 105.362 15.0433 105.532 15.5625C105.712 16.0817 105.962 16.5301 106.283 16.9077C106.613 17.2853 107.01 17.578 107.472 17.7856C107.944 17.9933 108.478 18.0972 109.072 18.0972C109.809 18.0972 110.493 17.9556 111.125 17.6724C111.767 17.3797 112.32 16.9408 112.782 16.3555L114.765 18.5078C114.444 18.9704 114.005 19.4141 113.448 19.8389C112.9 20.2637 112.239 20.613 111.465 20.8867C110.691 21.151 109.809 21.2832 108.817 21.2832Z"
				fill="white"
			/>
		</svg>