<svg width="31" height="29" viewBox="0 0 31 29" fill="none" xmlns="http://www.w3.org/2000/svg">
<path d="M3.46875 1.375V17.7813C3.46875 18.6515 3.81445 19.4861 4.42981 20.1014C5.04516 20.7168 5.87976 21.0625 6.75 21.0625H10.0313M3.46875 1.375H1.28125M3.46875 1.375H27.5313M10.0313 21.0625H20.9688M10.0313 21.0625L8.57292 25.4375M27.5313 1.375H29.7188M27.5313 1.375V17.7813C27.5313 18.6515 27.1855 19.4861 26.5702 20.1014C25.9548 20.7168 25.1202 21.0625 24.25 21.0625H20.9688M20.9688 21.0625L22.4271 25.4375M8.57292 25.4375H22.4271M8.57292 25.4375L7.84375 27.625M22.4271 25.4375L23.1563 27.625M8.9375 14.5L13.3125 10.125L16.445 13.2575C17.9167 11.1448 19.8344 9.38099 22.0625 8.09063" stroke="white" stroke-width="1.5" stroke-linecap="round" stroke-linejoin="round"/>
</svg>
