<svg width="31" height="31" viewBox="0 0 31 31" fill="none" xmlns="http://www.w3.org/2000/svg">
<path d="M14.6543 20.1229L23.1564 28.625C23.8855 29.3309 24.8629 29.7218 25.8777 29.7136C26.8926 29.7054 27.8635 29.2986 28.5811 28.581C29.2987 27.8634 29.7055 26.8924 29.7137 25.8776C29.722 24.8628 29.331 23.8854 28.6251 23.1563L20.0545 14.5856M14.6543 20.1229L18.2943 15.7042C18.7566 15.1442 19.3735 14.7912 20.056 14.5871C20.858 14.3479 21.752 14.3129 22.5978 14.3829C23.738 14.4808 24.8839 14.2789 25.922 13.7971C26.96 13.3154 27.854 12.5706 28.5152 11.6366C29.1765 10.7026 29.582 9.61198 29.6916 8.47287C29.8012 7.33377 29.611 6.18581 29.1399 5.14292L24.3624 9.92188C23.5631 9.73705 22.8318 9.33149 22.2517 8.75138C21.6715 8.17127 21.266 7.43993 21.0812 6.64063L25.8587 1.86312C24.8158 1.39203 23.6678 1.20183 22.5287 1.31141C21.3896 1.42099 20.299 1.82654 19.365 2.4878C18.431 3.14906 17.6862 4.04306 17.2045 5.08108C16.7227 6.11909 16.5208 7.26504 16.6187 8.40521C16.7514 9.97438 16.5151 11.7069 15.3003 12.7073L15.1516 12.8313M14.6543 20.1229L7.86574 28.3669C7.53673 28.7679 7.12739 29.0956 6.66407 29.3289C6.20075 29.5622 5.69371 29.6959 5.1756 29.7214C4.65749 29.7469 4.13977 29.6637 3.65578 29.477C3.17179 29.2903 2.73225 29.0044 2.36544 28.6376C1.99864 28.2708 1.7127 27.8312 1.52603 27.3473C1.33936 26.8633 1.25609 26.3455 1.28159 25.8274C1.30709 25.3093 1.44079 24.8023 1.67409 24.339C1.90739 23.8756 2.23511 23.4663 2.63616 23.1373L12.6068 14.9269L6.61741 8.9375H4.56262L1.28137 3.46875L3.46887 1.28125L8.93762 4.5625V6.61729L15.1501 12.8298L12.6053 14.9254M24.797 24.7969L20.9689 20.9688M5.09783 25.8906H5.10949V25.9023H5.09783V25.8906Z" stroke="white" stroke-width="1.5" stroke-linecap="round" stroke-linejoin="round"/>
</svg>
