<?xml version="1.0" standalone="no"?>
<!DOCTYPE svg PUBLIC "-//W3C//DTD SVG 20010904//EN"
 "http://www.w3.org/TR/2001/REC-SVG-20010904/DTD/svg10.dtd">
<svg version="1.0" xmlns="http://www.w3.org/2000/svg"
 width="700.000000pt" height="700.000000pt" viewBox="0 0 700.000000 700.000000"
 preserveAspectRatio="xMidYMid meet">
<metadata>
Created by potrace 1.14, written by Peter Selinger 2001-2017
</metadata>
<g transform="translate(0.000000,700.000000) scale(0.100000,-0.100000)"
fill="#000000" stroke="none">
<path d="M0 6133 c1 -477 6 -890 11 -916 4 -26 11 -69 15 -95 10 -77 61 -244
103 -343 223 -517 698 -879 1252 -955 84 -11 127 -12 804 -13 l681 -1 210
-209 c133 -132 224 -215 248 -225 26 -11 41 -26 52 -52 10 -23 93 -115 225
-248 l209 -210 1 -681 c0 -374 2 -691 4 -705 1 -14 6 -52 9 -85 15 -156 70
-336 155 -510 185 -376 527 -673 926 -803 242 -80 258 -81 1238 -82 l858 0 -4
892 c-1 491 -6 902 -9 913 -3 11 -9 40 -13 65 -19 126 -75 296 -140 430 -120
249 -330 484 -569 638 -133 85 -355 180 -486 208 -19 4 -37 8 -40 9 -7 2 -88
16 -125 21 -69 11 -172 13 -811 14 l-671 0 -155 155 -155 156 155 154 156 155
680 1 c375 0 701 2 726 4 125 10 293 48 419 95 385 142 710 439 884 810 73
155 103 250 144 455 3 16 8 434 10 928 l4 898 -863 -2 c-942 -1 -947 -1 -1162
-60 -120 -33 -135 -38 -281 -109 -324 -157 -580 -420 -739 -760 -43 -93 -97
-255 -113 -335 -4 -22 -8 -42 -8 -45 -2 -6 -17 -136 -21 -170 -1 -14 -2 -331
-3 -705 l-1 -681 -151 -152 c-83 -84 -155 -152 -159 -152 -4 0 -75 68 -158
152 l-152 151 -1 686 c-1 377 -3 697 -4 711 -4 48 -16 145 -20 160 -2 8 -6 26
-9 40 -21 109 -64 237 -117 350 -129 273 -315 488 -571 659 -42 28 -80 51 -84
51 -4 0 -15 6 -23 13 -28 24 -223 105 -317 132 -221 63 -215 63 -1172 64
l-873 2 1 -868z m1015 157 c25 -13 171 -152 387 -368 191 -191 364 -364 385
-384 l38 -37 0 212 c1 233 3 244 66 306 50 50 87 65 160 66 56 0 73 -4 115
-30 30 -19 60 -49 79 -79 l30 -49 2 -421 c2 -232 3 -430 3 -442 0 -12 35 -56
89 -110 108 -108 136 -158 134 -234 -2 -122 -85 -212 -206 -224 -81 -8 -129
17 -240 124 l-102 100 -65 0 c-36 1 -229 1 -431 1 -328 0 -369 2 -405 18 -98
44 -152 135 -139 236 9 74 55 141 121 175 47 24 54 25 255 25 114 0 207 1 206
2 -1 1 -178 179 -393 395 -400 403 -408 412 -417 497 -19 174 168 300 328 221z
m5161 9 c43 -13 110 -86 127 -138 18 -56 14 -121 -13 -174 -13 -28 -152 -174
-400 -421 -209 -209 -378 -381 -375 -384 2 -3 94 -6 202 -7 222 -2 246 -7 307
-69 101 -104 76 -278 -51 -353 l-48 -28 -439 -2 -439 -2 -35 -33 c-19 -18 -59
-58 -90 -89 -118 -121 -243 -138 -346 -48 -73 65 -97 147 -70 240 13 41 33 68
115 152 l100 102 2 441 2 441 30 49 c80 129 250 149 357 41 57 -58 66 -100 64
-324 -1 -180 0 -191 16 -176 10 8 176 175 370 370 194 194 371 367 394 383 68
48 133 57 220 29z m-1352 -3820 c24 -12 83 -61 131 -110 72 -74 93 -89 119
-89 17 -1 216 -2 441 -3 l410 -2 48 -28 c57 -34 103 -101 113 -164 14 -91 -40
-194 -124 -235 -43 -21 -61 -23 -237 -24 -104 -2 -197 -3 -206 -3 -9 -1 156
-173 368 -383 263 -264 390 -397 405 -427 28 -59 28 -142 0 -196 -30 -56 -41
-68 -92 -100 -36 -23 -55 -28 -105 -28 -34 1 -77 8 -100 18 -28 12 -156 133
-427 404 -214 213 -388 385 -389 382 0 -3 -1 -96 -3 -206 -2 -218 -8 -246 -63
-303 -108 -112 -292 -83 -369 58 -18 33 -19 64 -21 450 -1 228 -2 426 -3 440
0 18 -26 52 -94 121 -111 113 -127 141 -129 223 -4 172 172 283 327 205z"/>
</g>
</svg>
