<!DOCTYPE svg PUBLIC "-//W3C//DTD SVG 1.1//EN" "http://www.w3.org/Graphics/SVG/1.1/DTD/svg11.dtd">
<!-- Uploaded to: SVG Repo, www.svgrepo.com, Transformed by: SVG Repo Mixer Tools -->
<svg fill="#ffffff" width="64px" height="64px" viewBox="0 0 24.00 24.00" xmlns="http://www.w3.org/2000/svg" stroke="#ffffff" stroke-width="0.00024000000000000003" transform="matrix(-1, 0, 0, 1, 0, 0)">
<g id="SVGRepo_bgCarrier" stroke-width="0"/>
<g id="SVGRepo_tracerCarrier" stroke-linecap="round" stroke-linejoin="round" stroke="#CCCCCC" stroke-width="0.048"/>
<g id="SVGRepo_iconCarrier">
<path d="M19 2H9c-1.103 0-2 .897-2 2v6H5c-1.103 0-2 .897-2 2v9a1 1 0 0 0 1 1h16a1 1 0 0 0 1-1V4c0-1.103-.897-2-2-2zM5 12h6v8H5v-8zm14 8h-6v-8c0-1.103-.897-2-2-2H9V4h10v16z"/>
<path d="M11 6h2v2h-2zm4 0h2v2h-2zm0 4.031h2V12h-2zM15 14h2v2h-2zm-8 .001h2v2H7z"/>
</g>
</svg>